<svg width="124" height="7" viewBox="0 0 124 7" fill="none" xmlns="http://www.w3.org/2000/svg">
    <path fill-rule="evenodd" clip-rule="evenodd"
          d="M87.4913 1.79895L87.4946 1.83746L87.2003 1.86312C87.1993 1.85028 87.1983 1.83744 87.1972 1.82462L87.4913 1.79895ZM85.8473 1.72779L85.8491 1.75695L85.5802 1.78029L85.5786 1.75112L85.8473 1.72779ZM57.7825 2.17385L57.7957 2.14352L58.2124 2.10735L58.2137 2.13652L57.7825 2.17385ZM33.3616 1.4085L33.3525 1.34706L34.0099 1.2895L33.3614 1.4085H33.3616ZM62.5989 1.42406L62.5826 1.32567L63.0011 1.25761L63.0171 1.35211L62.5989 1.42367V1.42406ZM88.1761 1.89268L88.1838 1.83123L88.9336 1.88879C88.9311 1.91135 88.928 1.93351 88.9252 1.95607L88.1761 1.89268ZM66.2304 2.11979L66.2228 2.18902C65.9805 2.17618 65.7372 2.16957 65.496 2.14896C65.2756 2.13029 65.0288 2.24618 64.848 2.00196C65.3088 2.04085 65.7697 2.08052 66.2304 2.11979ZM45.1914 0.670767C44.6455 0.75088 43.794 0.895938 42.9382 0.995884C42.0764 1.097 41.211 1.17594 40.3458 1.22222C39.4621 1.26889 38.5759 1.28445 37.6922 1.27667C36.857 1.27006 36.0155 1.45828 35.1859 1.29106L45.1914 0.670767ZM0.845595 4.70323C0.850419 4.91323 0.666571 5.08979 0.879114 5.23446C0.929901 5.26907 0.977387 5.38146 0.953517 5.42424C0.784143 5.73108 1.00532 5.89597 1.19983 6.04842C1.49948 6.2837 1.77931 6.51432 2.24553 6.51121C4.04288 6.49876 5.83058 6.32765 7.61751 6.13165C10.6916 5.79447 13.7635 5.43319 16.8384 5.1034C18.0278 4.97585 19.2241 4.83662 20.4145 4.82651C22.3493 4.81018 24.2479 4.41739 26.1702 4.28672C28.1146 4.15411 30.0508 3.8916 32.0033 3.88888C33.6397 3.88655 35.2791 3.78505 36.9154 3.78194C38.648 3.77844 40.3786 3.84221 42.1104 3.8706C43.1297 3.88733 44.15 3.8881 45.1693 3.90327C46.6706 3.92505 48.1708 3.97716 49.6728 3.97327C51.6373 3.96822 53.6032 3.91805 55.5684 3.89355C57.4171 3.87021 59.2657 3.84377 61.1141 3.83871C63.9645 3.83094 66.8142 3.84883 69.6646 3.83871C71.3025 3.83249 72.9408 3.80644 74.5792 3.76366C77.1803 3.69599 79.7826 3.56221 82.3821 3.54315C84.0169 3.53149 85.6495 3.65943 87.2795 3.75938C88.7549 3.8496 90.2272 3.97483 91.6977 4.10939C92.5367 4.18561 93.3691 4.31161 94.2048 4.4135C95.0969 4.52162 95.9889 4.63012 96.8813 4.73434C98.2515 4.89418 99.6197 5.06685 100.993 5.20374C101.966 5.30096 102.945 5.35424 103.922 5.41413C105.436 5.50747 106.95 5.6113 108.467 5.66925C109.388 5.70464 110.316 5.70425 111.238 5.64203C111.905 5.59362 112.574 5.62782 113.238 5.7443C115.135 6.08264 117.043 6.37354 118.936 6.72705C120.05 6.9351 121.16 7.079 122.308 6.95261C122.495 6.93199 122.689 6.99538 122.881 6.99344C123.049 6.99188 123.241 6.99422 123.383 6.92266C123.67 6.77877 124.019 6.60765 123.999 6.2627C123.978 5.90142 123.727 5.61364 123.383 5.44291C123.171 5.33752 122.925 5.28657 122.68 5.20685C122.685 5.10107 122.677 5.01162 122.694 4.92529C122.792 4.41234 122.609 4.10083 122.087 3.91805C121.928 3.86205 121.799 3.81771 121.712 3.6396C121.587 3.38021 121.32 3.34715 121.119 3.58438C120.871 3.87644 120.561 3.90444 120.238 3.90988C119.718 3.91883 119.196 3.91999 118.681 3.88072C117.705 3.80644 116.734 3.69949 115.76 3.61043C115.569 3.59293 115.373 3.56843 115.184 3.59215C114.127 3.72438 113.117 3.49143 112.093 3.36193C110.481 3.15815 108.868 2.95748 107.255 2.75953C106.38 2.65219 105.506 2.5433 104.629 2.45191C103.62 2.34691 102.608 2.25941 101.597 2.16607C100.662 2.07974 99.7281 1.98835 98.7919 1.91251C98.0466 1.85223 97.2987 1.81373 96.5527 1.76084C96.0557 1.72584 95.56 1.67956 95.0628 1.64495C93.1685 1.51195 91.2729 1.38595 89.3785 1.24906C88.3257 1.17283 87.2754 1.07327 86.2221 0.998606C85.5327 0.949606 84.8397 0.93055 84.1492 0.889716C83.1525 0.829826 82.1569 0.76138 81.1607 0.697601C80.2219 0.637711 79.2828 0.578599 78.3438 0.520264C77.0599 0.44093 75.7773 0.348372 74.4916 0.287316C73.0521 0.219259 71.6102 0.17648 70.1686 0.129813C68.6115 0.0792562 67.0552 0.00419925 65.4962 0.000310287C63.6105 -0.00474536 61.7225 0.0532001 59.8355 0.0850896C58.4313 0.108423 57.0268 0.12009 55.6223 0.161313C54.2932 0.200592 52.9641 0.273315 51.6347 0.329316C50.653 0.370928 49.6637 0.485653 48.6906 0.434318C46.3793 0.312594 44.0723 0.53932 41.7635 0.601544C38.9449 0.677767 36.1381 0.960883 33.3294 1.21172C32.9751 1.24322 32.627 1.36728 32.2756 1.44661C32.2019 1.46334 32.111 1.50223 32.0536 1.47928C31.4762 1.24633 30.8771 1.44973 30.2908 1.45284C28.5407 1.46178 26.7898 1.49756 25.0394 1.52284C24.9815 1.52362 24.9239 1.51817 24.8663 1.51895L21.0029 1.55939C18.9041 1.58195 16.8054 1.61578 14.7069 1.62473C13.3788 1.63017 12.0515 1.55628 10.7236 1.59517C9.01441 1.64573 7.30975 1.75345 5.60483 2.02529C3.98892 2.28627 2.37662 2.59719 0.768906 2.95786C0.56906 3.00259 0.369722 3.09048 0.194507 3.19509C-0.0157505 3.32148 -0.068061 3.49649 0.0995357 3.69988C0.174954 3.79166 0.248341 3.90988 0.256467 4.02188C0.282368 4.39134 0.39994 4.67912 0.845595 4.70323Z"
          fill="currentColor"/>
</svg>
